<svg width="20" height="20" viewBox="0 0 20 20" fill="none" xmlns="http://www.w3.org/2000/svg">
<path fill-rule="evenodd" clip-rule="evenodd" d="M1.66675 3.33335C1.66675 2.41288 2.41294 1.66669 3.33342 1.66669H7.50008C8.42056 1.66669 9.16675 2.41288 9.16675 3.33335V7.50002C9.16675 8.4205 8.42056 9.16669 7.50008 9.16669H3.33342C2.41294 9.16669 1.66675 8.4205 1.66675 7.50002V3.33335ZM7.50008 3.33335H3.33342V7.50002H7.50008V3.33335ZM10.8334 3.33335C10.8334 2.41288 11.5796 1.66669 12.5001 1.66669H16.6668C17.5872 1.66669 18.3334 2.41288 18.3334 3.33335V7.50002C18.3334 8.4205 17.5872 9.16669 16.6668 9.16669H12.5001C11.5796 9.16669 10.8334 8.4205 10.8334 7.50002V3.33335ZM16.6668 3.33335H12.5001V7.50002H16.6668V3.33335ZM1.66675 12.5C1.66675 11.5795 2.41294 10.8334 3.33342 10.8334H7.50008C8.42056 10.8334 9.16675 11.5795 9.16675 12.5V16.6667C9.16675 17.5872 8.42056 18.3334 7.50008 18.3334H3.33342C2.41294 18.3334 1.66675 17.5872 1.66675 16.6667V12.5ZM7.50008 12.5H3.33342V16.6667H7.50008V12.5ZM10.8334 12.5C10.8334 11.5795 11.5796 10.8334 12.5001 10.8334H16.6668C17.5872 10.8334 18.3334 11.5795 18.3334 12.5V16.6667C18.3334 17.5872 17.5872 18.3334 16.6668 18.3334H12.5001C11.5796 18.3334 10.8334 17.5872 10.8334 16.6667V12.5ZM16.6668 12.5H12.5001V16.6667H16.6668V12.5Z" fill="white"/>
</svg>
