<svg width="20" height="20" viewBox="0 0 20 20" fill="none" xmlns="http://www.w3.org/2000/svg">
<path fill-rule="evenodd" clip-rule="evenodd" d="M0.416748 2.50002C0.416748 2.03978 0.789844 1.66669 1.25008 1.66669H2.70842C3.0908 1.66669 3.42412 1.92693 3.51687 2.29791L3.98406 4.16669H18.3334C18.59 4.16669 18.8323 4.28491 18.9903 4.48718C19.1482 4.68944 19.2041 4.95318 19.1419 5.20213L17.0585 13.5355C16.9658 13.9064 16.6325 14.1667 16.2501 14.1667H5.41675C5.03436 14.1667 4.70104 13.9064 4.6083 13.5355L2.05777 3.33335H1.25008C0.789844 3.33335 0.416748 2.96026 0.416748 2.50002ZM4.40073 5.83335L6.0674 12.5H15.5994L17.2661 5.83335H4.40073Z" fill="#C93E33"/>
<path fill-rule="evenodd" clip-rule="evenodd" d="M5.41675 14.1667C6.56734 14.1667 7.50008 15.0994 7.50008 16.25C7.50008 17.4006 6.56734 18.3334 5.41675 18.3334C4.26616 18.3334 3.33342 17.4006 3.33342 16.25C3.33342 15.0994 4.26616 14.1667 5.41675 14.1667ZM5.41675 15.8334C5.18663 15.8334 5.00008 16.0199 5.00008 16.25C5.00008 16.4801 5.18663 16.6667 5.41675 16.6667C5.64687 16.6667 5.83342 16.4801 5.83342 16.25C5.83342 16.0199 5.64687 15.8334 5.41675 15.8334Z" fill="#C93E33"/>
<path fill-rule="evenodd" clip-rule="evenodd" d="M16.2501 14.1667C17.4007 14.1667 18.3334 15.0994 18.3334 16.25C18.3334 17.4006 17.4007 18.3334 16.2501 18.3334C15.0995 18.3334 14.1667 17.4006 14.1667 16.25C14.1667 15.0994 15.0995 14.1667 16.2501 14.1667ZM15.8334 16.25C15.8334 16.0199 16.02 15.8334 16.2501 15.8334C16.4802 15.8334 16.6667 16.0199 16.6667 16.25C16.6667 16.4801 16.4802 16.6667 16.2501 16.6667C16.02 16.6667 15.8334 16.4801 15.8334 16.25Z" fill="#C93E33"/>
</svg>
